Coordinates
version=1
nRows=7
nColumns=33
inDegrees=yes

Units are S.I. units (second, meters, Newtons, ...)
Angles are in degrees.

endheader
time	ground_thorax_rot_x	ground_thorax_rot_y	ground_thorax_rot_z	ground_thorax_tx	ground_thorax_ty	ground_thorax_tz	clav_prot_r	clav_elev_r	scapula_abduction_r	scapula_elevation_r	scapula_upward_rot_r	scapula_winging_r	shoulder_elv_r	plane_of_elev_r	axial_rot_r	elbow_flexion_r	pro_sup_r	wrist_flex_r	wrist_dev_r	clav_prot_l	clav_elev_l	scapula_abduction_l	scapula_elevation_l	scapula_upward_rot_l	scapula_winging_l	shoulder_elv_l	plane_of_elev_l	axial_rot_l	elbow_flexion_l	pro_sup_l	wrist_flex_l	wrist_dev_l
      5.35000000	     41.40564606	     11.23970721	     12.76377716	   -171.21600789	    813.13052778	      2.69818958	     13.63522144	     42.11890937	     41.33880718	     45.00000000	    -23.53786379	  -1170.19257920	  -2816.56701254	     32.14169619	     47.13536822	    731.09977484	      8.43384169	     18.16711757	     11.38231996	      7.32290009	    -45.00000000	    -38.35798330	     45.00000000	    -45.00000000	   -628.89565230	  -3692.05406542	    134.29649310	   -179.99999979	    731.71035039	     36.46792955	      7.18845675	    -22.64400852
      5.36000000	     41.40247901	     11.13603421	     12.63717332	   -173.03352654	    814.35772068	      2.64366162	     13.60431134	     42.07347110	     41.24967017	     45.00000000	    -23.71146257	  -1170.21253407	  -2816.35623650	     32.24571095	     47.08445009	    731.15295929	      7.99572908	     18.19870232	     11.33893081	      7.39950624	    -45.00000000	    -38.40796429	     45.00000000	    -45.00000000	   -628.69107376	  -3691.97209589	    134.32565789	   -179.99999979	    731.73840753	     36.35316750	      7.20032186	    -22.67369499
      5.37000000	     41.39649364	     11.04498344	     12.55250480	   -174.81932168	    815.55017091	      2.59562182	     13.57010856	     42.03880790	     41.17501054	     45.00000000	    -23.86221460	  -1170.21457255	  -2816.18591976	     32.30841831	     47.02715146	    731.15785950	      7.57350283	     18.21740669	     11.31957438	      7.47851695	    -45.00000000	    -38.42902152	     45.00000000	    -45.00000000	   -628.51272550	  -3691.93807322	    134.38833194	   -179.99999979	    731.73912632	     36.20410282	      7.21417806	    -22.69018897
      5.38000000	     41.43846330	     10.91503369	     12.40943460	   -176.57579986	    816.71145163	      2.55511571	     13.42863964	     41.92530281	     41.27841870	     45.00000000	    -23.51141210	  -1170.43577206	  -2816.29387352	     32.15343983	     46.82640402	    730.96377344	      7.21926591	     18.22009806	     11.24332660	      7.45682834	    -45.00000000	    -38.46662971	     45.00000000	    -45.00000000	   -628.24379876	  -3691.90397315	    134.33337150	   -179.99999979	    731.79284341	     36.06007352	      7.23782408	    -22.74313310
      5.39000000	     41.44523477	     10.74669527	     12.15338798	   -178.31654280	    817.85187921	      2.52265462	     13.39005927	     41.83636504	     41.17015929	     45.00000000	    -23.56624463	  -1170.54476513	  -2816.11285726	     32.26885737	     46.87658834	    731.16541014	      6.85638426	     18.30421355	     11.13872986	      7.50974290	    -45.00000000	    -38.55722912	     45.00000000	    -45.00000000	   -628.06793067	  -3691.81724357	    134.30969942	   -179.99999979	    731.88447415	     35.89338252	      7.25779396	    -22.78437628
      5.40000000	     41.43235209	     10.63615960	     12.09884837	   -180.03465642	    818.96820793	      2.49894462	     13.32040052	     41.81017880	     41.18125340	     45.00000000	    -23.60054984	  -1170.56980247	  -2816.03558936	     32.25573371	     46.85739262	    731.03098782	      6.52646711	     18.31144255	     11.07609981	      7.53072126	    -45.00000000	    -38.63767063	     45.00000000	    -45.00000000	   -627.88462447	  -3691.79939702	    134.39630790	   -179.99999979	    731.82855757	     35.74244431	      7.29093275	    -22.80757681
      5.41000000	     41.39101697	     10.53874704	     11.99298967	   -181.73987513	    820.06744326	      2.48428576	     13.28657725	     41.79993899	     41.03849861	     45.00000000	    -23.74703789	  -1170.56327129	  -2815.91094622	     32.32546321	     46.91643110	    731.19683127	      6.16910271	     18.38276917	     11.03137066	      7.61987736	    -45.00000000	    -38.54873684	     45.00000000	    -45.00000000	   -627.71141937	  -3691.70355092	    134.41860225	   -179.99999979	    731.83265979	     35.57338819	      7.26469843	    -22.80167094
